<?xml version="1.0" encoding="UTF-8"?>
<svg width="64px" height="45px" viewBox="0 0 64 45" version="1.1" xmlns="http://www.w3.org/2000/svg" xmlns:xlink="http://www.w3.org/1999/xlink">
    <!-- Generator: Sketch 45.2 (43514) - http://www.bohemiancoding.com/sketch -->
    <title>check</title>
    <desc>Created with Sketch.</desc>
    <defs>
        <polygon id="path-1" points="2 2 62 2 62 42 58.25 40 54.5 42 50.75 40 47 42 43.25 40 39.5 42 35.75 40 32 42 28.25 40 24.5 42 20.75 40 17 42 13.25 40 9.5 42 5.75 40 2 42"></polygon>
        <filter x="-5.8%" y="-6.2%" width="111.7%" height="117.5%" filterUnits="objectBoundingBox" id="filter-2">
            <feOffset dx="0" dy="1" in="SourceAlpha" result="shadowOffsetOuter1"></feOffset>
            <feGaussianBlur stdDeviation="1" in="shadowOffsetOuter1" result="shadowBlurOuter1"></feGaussianBlur>
            <feComposite in="shadowBlurOuter1" in2="SourceAlpha" operator="out" result="shadowBlurOuter1"></feComposite>
            <feColorMatrix values="0 0 0 0 0   0 0 0 0 0   0 0 0 0 0  0 0 0 0.2 0" type="matrix" in="shadowBlurOuter1"></feColorMatrix>
        </filter>
    </defs>
    <g id="Page-1" stroke="none" stroke-width="1" fill="none" fill-rule="evenodd">
        <g id="02-menu-02" transform="translate(-1176.000000, -95.000000)">
            <g id="Group-6" transform="translate(1176.000000, 95.000000)">
                <g id="Group-39">
                    <path d="M2,0 L62,0 C63.1045695,0 64,0.8954305 64,2 C64,3.1045695 63.1045695,4 62,4 L2,4 C0.8954305,4 0,3.1045695 0,2 C0,0.8954305 0.8954305,0 2,0 Z" id="Rectangle-9" fill="#888888"></path>
                    <g id="Rectangle-8">
                        <use fill="black" fill-opacity="1" filter="url(#filter-2)" xlink:href="#path-1"></use>
                        <use fill="#FFFFFF" fill-rule="evenodd" xlink:href="#path-1"></use>
                        <path stroke="#FFFFFF" stroke-width="1" d="M2.5,2.5 L2.5,41.1666667 L5.75,39.4333333 L9.5,41.4333333 L13.25,39.4333333 L17,41.4333333 L20.75,39.4333333 L24.5,41.4333333 L28.25,39.4333333 L32,41.4333333 L35.75,39.4333333 L39.5,41.4333333 L43.25,39.4333333 L47,41.4333333 L50.75,39.4333333 L54.5,41.4333333 L58.25,39.4333333 L61.5,41.1666667 L61.5,2.5 L2.5,2.5 Z"></path>
                    </g>
                    <path d="M11.02,28 L18.755,28 L18.755,26.538 L12.771,26.538 C12.839,23.801 18.568,23.189 18.568,19.245 C18.568,17.171 16.987,15.794 14.794,15.794 C13.026,15.794 11.666,16.814 10.986,18.072 L12.227,18.905 C12.737,18.038 13.655,17.375 14.658,17.375 C15.933,17.375 16.834,18.191 16.834,19.364 C16.834,22.186 10.935,22.815 10.935,27.082 C10.935,27.371 10.969,27.677 11.02,28 Z M25.028,28.204 C21.832,28.204 20.778,25.45 20.778,21.982 C20.778,18.531 21.832,15.794 25.028,15.794 C28.241,15.794 29.278,18.531 29.278,21.982 C29.278,25.45 28.241,28.204 25.028,28.204 Z M25.028,26.657 C27,26.657 27.544,24.617 27.544,21.982 C27.544,19.381 27,17.341 25.028,17.341 C23.073,17.341 22.512,19.381 22.512,21.982 C22.512,24.617 23.073,26.657 25.028,26.657 Z M35.602,28.204 C32.406,28.204 31.352,25.45 31.352,21.982 C31.352,18.531 32.406,15.794 35.602,15.794 C38.815,15.794 39.852,18.531 39.852,21.982 C39.852,25.45 38.815,28.204 35.602,28.204 Z M35.602,26.657 C33.647,26.657 33.086,24.617 33.086,21.982 C33.086,19.381 33.647,17.341 35.602,17.341 C37.574,17.341 38.118,19.381 38.118,21.982 C38.118,24.617 37.574,26.657 35.602,26.657 Z M55,21.0340048 L44,21.0340048 L44,20.0670427 L51.1342373,20.0670427 C51.3627468,19.79329 51.477,19.4841869 51.477,19.139726 C51.477,18.6465729 51.273002,18.2493166 50.865,17.9479452 C50.456998,17.6465738 49.9413364,17.4958904 49.318,17.4958904 C48.853331,17.4958904 48.3801691,17.5890402 47.8985,17.7753425 C47.4168309,17.9616448 47.0060017,18.2082176 46.666,18.5150685 L45.901,17.1835616 C46.7623376,16.3945166 47.8786598,16 49.25,16 C50.383339,16 51.321163,16.2958875 52.0635,16.8876712 C52.805837,17.479455 53.177,18.2575294 53.177,19.2219178 C53.177,19.5237318 53.136573,19.8054396 53.0557184,20.0670427 L55,20.0670427 L55,21.0340048 Z M44,22.000967 L55,22.000967 L55,22.9679291 L48.989143,22.9679291 C48.6038789,23.157029 48.2658332,23.3741109 47.975,23.6191781 C47.5783313,23.9534263 47.38,24.356162 47.38,24.8273973 C47.38,25.3315094 47.5726647,25.7342451 47.958,26.0356164 C48.3433353,26.3369878 48.8533302,26.4876712 49.488,26.4876712 C50.0320027,26.4876712 50.5759973,26.3698642 51.12,26.1342466 C51.6640027,25.898629 52.1286647,25.6000018 52.514,25.2383562 L53.466,26.4712329 C52.3893279,27.4904161 51.0746744,28 49.522,28 C48.331994,28 47.3970034,27.6849347 46.717,27.0547945 C46.0369966,26.4246544 45.697,25.6383609 45.697,24.6958904 C45.697,24.1150656 45.8386652,23.6054816 46.122,23.1671233 C46.1664885,23.0982934 46.212793,23.0318954 46.2609137,22.9679291 L44,22.9679291 L44,22.000967 Z" id="Combined-Shape" fill="#000000" opacity="0.5"></path>
                </g>
            </g>
        </g>
    </g>
</svg>