<?xml version="1.0" encoding="UTF-8"?>
<svg width="16px" height="20px" viewBox="0 0 16 20" version="1.1" xmlns="http://www.w3.org/2000/svg" xmlns:xlink="http://www.w3.org/1999/xlink">
    <!-- Generator: Sketch 45.2 (43514) - http://www.bohemiancoding.com/sketch -->
    <title>02-menu-02</title>
    <desc>Created with Sketch.</desc>
    <defs></defs>
    <g id="Page-1" stroke="none" stroke-width="1" fill="none" fill-rule="evenodd">
        <g id="02-menu-02" transform="translate(-384.000000, -181.000000)" fill="#000000">
            <g id="Group-25" transform="translate(40.000000, 181.000000)">
                <g id="Group-11" transform="translate(325.000000, 0.000000)">
                    <g id="grn" transform="translate(19.000000, 0.000000)">
                        <path d="M16,9.03400483 L5,9.03400483 L5,8.06704271 L12.1342373,8.06704271 C12.3627468,7.79329 12.477,7.4841869 12.477,7.13972603 C12.477,6.64657288 12.273002,6.24931658 11.865,5.94794521 C11.456998,5.64657384 10.9413365,5.49589041 10.318,5.49589041 C9.85333101,5.49589041 9.38016908,5.58904016 8.8985,5.77534247 C8.41683093,5.96164477 8.0060017,6.20821764 7.666,6.51506849 L6.901,5.18356164 C7.76233764,4.3945166 8.87865981,4 10.25,4 C11.383339,4 12.321163,4.29588745 13.0635,4.88767123 C13.805837,5.47945501 14.177,6.25752942 14.177,7.22191781 C14.177,7.52373178 14.136573,7.80543955 14.0557184,8.06704271 L16,8.06704271 L16,9.03400483 Z M5,10.000967 L16,10.000967 L16,10.9679291 L9.989143,10.9679291 C9.60387894,11.157029 9.26583318,11.3741109 8.975,11.6191781 C8.57833135,11.9534263 8.38,12.356162 8.38,12.8273973 C8.38,13.3315094 8.57266474,13.7342451 8.958,14.0356164 C9.34333526,14.3369878 9.85333016,14.4876712 10.488,14.4876712 C11.0320027,14.4876712 11.5759973,14.3698642 12.12,14.1342466 C12.6640027,13.898629 13.1286647,13.6000018 13.514,13.2383562 L14.466,14.4712329 C13.389328,15.4904161 12.0746744,16 10.522,16 C9.33199405,16 8.3970034,15.6849347 7.717,15.0547945 C7.0369966,14.4246544 6.697,13.6383609 6.697,12.6958904 C6.697,12.1150656 6.83866525,11.6054816 7.122,11.1671233 C7.16648847,11.0982934 7.21279302,11.0318954 7.26091371,10.9679291 L5,10.9679291 L5,10.000967 Z"></path>
                    </g>
                </g>
            </g>
        </g>
    </g>
</svg>