<?xml version="1.0" encoding="UTF-8"?>
<svg width="69px" height="20px" viewBox="0 0 69 20" version="1.1" xmlns="http://www.w3.org/2000/svg" xmlns:xlink="http://www.w3.org/1999/xlink">
    <!-- Generator: Sketch 45.2 (43514) - http://www.bohemiancoding.com/sketch -->
    <title>reserve</title>
    <desc>Created with Sketch.</desc>
    <defs></defs>
    <g id="Page-1" stroke="none" stroke-width="1" fill="none" fill-rule="evenodd">
        <g id="01-main-01" transform="translate(-1171.000000, -650.000000)">
            <g id="Group-5" transform="translate(40.000000, 648.000000)">
                <g id="reserve" transform="translate(1131.000000, 2.000000)">
                    <polygon id="Rectangle-11" fill="#545084" points="3 0 4 0 6 20 5 20 0 20"></polygon>
                    <polygon id="Rectangle" fill="#9792CE" points="3 0 66 0 69 20 6 20"></polygon>
                    <path d="M13.7902112,14 L12.5735003,6.19 L15.5875003,6.19 C16.3208373,6.19 16.955056,6.42466432 17.4901756,6.894 C18.0252952,7.36333568 18.3516866,7.97566289 18.4693597,8.731 C18.5870328,9.48633711 18.4522857,10.1041643 18.0651144,10.5845 C17.677943,11.0648357 17.1176972,11.305 16.3843602,11.305 L14.7893602,11.305 L15.2092112,14 L13.7902112,14 Z M14.5974284,10.073 L15.9284284,10.073 C16.3390971,10.073 16.6410769,9.95200121 16.834377,9.71 C17.0276771,9.46799879 17.0923373,9.14166872 17.0283597,8.731 C16.9655246,8.32766465 16.800044,8.00683452 16.531913,7.7685 C16.2637819,7.53016547 15.9317204,7.411 15.5357185,7.411 L14.1827185,7.411 L14.5974284,10.073 Z M22.5222112,14 L21.3055003,6.19 L25.9805003,6.19 L26.1707185,7.411 L22.9147185,7.411 L23.2334624,9.457 L25.8624624,9.457 L26.0526806,10.678 L23.4236806,10.678 L23.750993,12.779 L27.182993,12.779 L27.3732112,14 L22.5222112,14 Z M29.9246939,13.021 L30.5473176,12.075 C30.7954015,12.3023345 31.0891023,12.4929992 31.4284288,12.647 C31.7677554,12.8010008 32.1024144,12.878 32.4324161,12.878 C32.8577515,12.878 33.1785161,12.7716677 33.3947194,12.559 C33.6109227,12.3463323 33.6898906,12.0530019 33.6316252,11.679 C33.5790722,11.341665 33.4258265,11.0758343 33.1718836,10.8815 C32.9179407,10.6871657 32.6003064,10.59 32.2189712,10.59 L31.2619712,10.59 L31.0837488,9.446 L31.8537488,9.446 C32.2057505,9.446 32.4794201,9.34333436 32.6747658,9.138 C32.8701115,8.93266564 32.9437916,8.67600154 32.8958084,8.368 C32.8466827,8.05266509 32.7037461,7.79416767 32.4669941,7.5925 C32.2302422,7.39083232 31.9175366,7.29 31.528868,7.29 C30.934865,7.29 30.4044772,7.5099978 29.9376886,7.95 L29.204603,6.916 C29.8048281,6.34399714 30.5962646,6.058 31.5789361,6.058 C32.2462728,6.058 32.8424706,6.24866476 33.3675474,6.63 C33.8926241,7.01133524 34.2065684,7.5319967 34.3093895,8.192 C34.4293476,8.96200385 34.1602706,9.54133139 33.5021506,9.93 C33.928335,10.0766673 34.281605,10.2966651 34.5653985,10.612 C34.849192,10.9273349 35.0265023,11.3123311 35.0973347,11.767 C35.2092955,12.4856703 35.040194,13.0594979 34.5900252,13.4885 C34.1398563,13.9175021 33.5297791,14.132 32.7597753,14.132 C32.2611061,14.132 31.7601403,14.0348343 31.2568628,13.8405 C30.7535854,13.6461657 30.3095335,13.3730018 29.9246939,13.021 Z M38.8862112,14 L37.6695003,6.19 L42.3445003,6.19 L42.5347185,7.411 L39.2787185,7.411 L39.5974624,9.457 L42.2264624,9.457 L42.4166806,10.678 L39.7876806,10.678 L40.114993,12.779 L43.546993,12.779 L43.7372112,14 L38.8862112,14 Z M47.1452112,14 L45.9285003,6.19 L48.9425003,6.19 C49.6758373,6.19 50.310056,6.42466432 50.8451756,6.894 C51.3802952,7.36333568 51.7066866,7.97566289 51.8243597,8.731 C51.9420328,9.48633711 51.8072857,10.1041643 51.4201144,10.5845 C51.032943,11.0648357 50.4726972,11.305 49.7393602,11.305 L48.1443602,11.305 L48.5642112,14 L47.1452112,14 Z M47.9524284,10.073 L49.2834284,10.073 C49.6940971,10.073 49.9960769,9.95200121 50.189377,9.71 C50.3826771,9.46799879 50.4473373,9.14166872 50.3833597,8.731 C50.3205246,8.32766465 50.155044,8.00683452 49.886913,7.7685 C49.6187819,7.53016547 49.2867204,7.411 48.8907185,7.411 L47.5377185,7.411 L47.9524284,10.073 Z M55.8772112,14 L54.6605003,6.19 L57.4435003,6.19 C58.1695039,6.19 58.7820356,6.36783155 59.2811136,6.7235 C59.7801917,7.07916844 60.0788519,7.57233018 60.1771032,8.203 C60.2342261,8.5696685 60.2013034,8.8996652 60.0783342,9.193 C59.955365,9.4863348 59.7597829,9.71366586 59.4915822,9.875 C59.9239576,10.0143339 60.2734413,10.2453316 60.5434712,10.59 C60.8135011,10.9346684 60.9810736,11.3159979 61.0461936,11.734 C61.1615818,12.4746704 60.9926,13.0374981 60.5392431,13.4225 C60.0858862,13.8075019 59.474215,14 58.7042112,14 L55.8772112,14 Z M56.5764667,9.38 L57.9514667,9.38 C58.2521349,9.38 58.4740664,9.28650093 58.6172679,9.0995 C58.7604695,8.91249906 58.8092203,8.6723348 58.7635221,8.379 C58.7189662,8.09299857 58.5965279,7.86016756 58.3962035,7.6805 C58.1958791,7.50083243 57.9380534,7.411 57.6227185,7.411 L56.2697185,7.411 L56.5764667,9.38 Z M57.105993,12.779 L58.623993,12.779 C58.9759947,12.779 59.2365455,12.674501 59.4056532,12.4655 C59.5747608,12.256499 59.6330372,11.983335 59.5804842,11.646 C59.5290736,11.3159984 59.3862566,11.046501 59.1520289,10.8375 C58.9178012,10.628499 58.6246909,10.524 58.2726891,10.524 L56.7546891,10.524 L57.105993,12.779 Z" id="РЕЗЕРВ" fill="#FFFFFF"></path>
                </g>
            </g>
        </g>
    </g>
</svg>