<?xml version="1.0" encoding="UTF-8"?>
<svg width="264px" height="49px" viewBox="0 0 264 49" version="1.1" xmlns="http://www.w3.org/2000/svg" xmlns:xlink="http://www.w3.org/1999/xlink">
    <!-- Generator: Sketch 45.2 (43514) - http://www.bohemiancoding.com/sketch -->
    <title>Group 16</title>
    <desc>Created with Sketch.</desc>
    <defs></defs>
    <g id="Page-1" stroke="none" stroke-width="1" fill="none" fill-rule="evenodd">
        <g id="01-main-01" transform="translate(-40.000000, -10.000000)">
            <g id="Group-12">
                <g id="Group-16" transform="translate(40.000000, 10.000000)">
                    <g id="Group-9" transform="translate(60.056872, 10.000000)" fill="#282222">
                        <path d="M17.6626368,0.754394927 L18.0344278,2.36841468 C17.7593024,2.47998286 16.8409786,2.52832908 16.8409786,4.31713898 L16.8409786,28.7989178 C16.8409786,30.5914467 17.7593024,30.6360739 18.0344278,30.7476421 L17.6626368,32.3653808 L11.0001412,32.3653808 L10.6283502,30.7476421 C10.8997576,30.6360739 11.8217994,30.5914467 11.8217994,28.7989178 L11.8217994,7.74600121 C11.8217994,3.67004351 6.8732606,4.1869761 6.8732606,4.1869761 L6.8732606,28.7989178 C6.8732606,30.5914467 7.79530239,30.6360739 8.06299195,30.7476421 L7.6912009,32.3653808 L1.03242326,32.3653808 L0.660632208,30.7476421 C0.932039673,30.6360739 1.85408147,30.5914467 1.85408147,28.7989178 L1.85408147,4.31713898 C1.85408147,2.52832908 0.932039673,2.47998286 0.660632208,2.36841468 L1.03242326,0.754394927 L17.6626368,0.754394927 Z" id="Shape"></path>
                        <path d="M27.278303,4.52681949 C30.0704537,4.59747934 30.5500642,4.74251798 31.594797,5.02887632 C34.0783612,5.70572331 36.2496209,8.09328248 35.8964194,11.749 C35.3164254,17.7253358 29.7209702,18.1902033 28.2040627,23.2777125 C29.3789224,22.325664 31.6840269,23.3483724 31.3085179,25.3603186 C30.8512149,27.799943 27.0180492,27.8482892 26.4566448,24.601655 L26.4566448,24.601655 L26.4566448,28.8003377 C26.4566448,30.5891476 27.3786866,30.6374938 27.650094,30.7453431 L27.278303,32.3630818 L20.6158074,32.3630818 L20.2440164,30.7453431 C20.5154238,30.6374938 21.4374656,30.5891476 21.4374656,28.8003377 L21.4374656,8.03749839 C21.4374656,6.24496954 20.5154238,6.20034227 20.2440164,6.08877408 L20.6158074,4.47103539 L27.278303,4.52681949 Z M26.4566448,22.0764951 C27.486506,17.8703745 29.7023806,15.9476827 30.8214717,13.7869789 C32.5205567,10.5105932 31.7732567,7.87386505 26.4566448,7.92221126 L26.4566448,8.03749839 L26.4566448,22.0764951 Z" id="Shape"></path>
                        <path d="M136.339833,12.9420399 L140.990939,4.47401461 L146.831776,4.47401461 L147.203567,6.08803436 C146.93216,6.19960255 146.010118,6.24794876 146.010118,8.03675867 L146.010118,28.799598 C146.010118,30.5921268 146.93216,30.6367541 147.203567,30.7483223 L146.831776,32.366061 L140.172998,32.366061 L139.801207,30.7483223 C140.072615,30.6367541 140.990939,30.5921268 140.990939,28.799598 L140.990939,12.2800687 L136.313807,20.6923098 L131.688727,12.2800687 L131.688727,28.799598 C131.688727,30.5921268 132.610768,30.6367541 132.882176,30.7483223 L132.510385,32.366061 L125.847889,32.366061 L125.476098,30.7483223 C125.751224,30.6367541 126.669547,30.5921268 126.669547,28.799598 L126.669547,8.03675867 C126.669547,6.24794876 125.751224,6.19960255 125.476098,6.08803436 L125.847889,4.47401461 L131.688727,4.47401461 L136.339833,12.9420399 Z" id="Shape"></path>
                        <path d="M150.519892,28.7985571 L150.519892,8.03794912 C150.519892,6.24690785 149.601568,6.20042111 149.330161,6.0903405 L149.701952,4.4729737 L163.811422,4.47222992 C163.458221,7.84567995 164.004754,10.2734037 164.004754,10.2734037 L162.781561,10.9465317 C161.063886,6.91482939 155.542789,7.42023327 155.542789,7.42023327 L155.542789,15.998711 C156.048425,13.6286309 159.74031,11.4143743 162.629127,14.0165163 L160.480174,18.4915162 C158.959549,16.6595666 155.542789,17.9414851 155.542789,21.0047755 L155.542789,29.415901 C155.542789,29.415901 161.063886,29.9213049 162.781561,25.8899745 L164.004754,26.5631025 C164.004754,26.5631025 163.458221,28.9908262 163.811422,32.3642763 L149.701952,32.3635325 L149.330161,30.7461657 C149.601568,30.6360851 150.519892,30.5892264 150.519892,28.7985571 Z" id="Shape"></path>
                        <path d="M194.92659,4.47128271 L195.298381,6.0886495 C195.026974,6.19910201 194.10865,6.24558875 194.10865,8.03551434 L194.10865,12.2330814 C194.666337,8.98644717 198.50322,9.03293392 198.956805,11.4747896 C199.332314,13.4841326 197.030928,14.5094442 195.85235,13.5555363 C197.369258,18.6452769 202.964713,19.1075411 203.544707,25.0849925 C203.897908,28.7388506 201.730367,31.1301287 199.246802,31.8066038 C198.20207,32.0918465 197.718741,32.237257 194.92659,32.3071731 L188.267813,32.3629572 L187.896022,30.7455904 C188.167429,30.6351379 189.089471,30.5886511 189.089471,28.7979818 L189.089471,6.97078195 C189.089471,6.97078195 187.107825,6.83764392 185.680147,8.4557545 L184.91054,7.77556047 L185.832581,4.47128271 L194.92659,4.47128271 Z M194.10865,14.7571256 C195.138511,18.9654776 197.350668,20.8866817 198.469759,23.045898 C200.172562,26.3219118 199.421544,28.9616151 194.10865,28.9114094 L194.10865,28.7979818 L194.10865,14.7571256 Z" id="Shape"></path>
                        <path d="M116.803334,18.4467096 L116.799616,8.03739791 C116.799616,6.24486906 115.88501,6.20024179 115.609885,6.0886736 L115.981676,4.47093491 L122.644172,4.47093491 L123.015963,6.0886736 C122.744555,6.20024179 121.822513,6.24486906 121.822513,8.03739791 L121.822513,32.3667002 L116.799616,32.3667002 C116.799616,17.9483717 114.066952,15.7058512 111.754412,15.1405724 L111.754412,28.8002372 C111.754412,30.5890471 112.672736,30.6373933 112.944143,30.7489615 L112.572352,32.3629813 L105.913574,32.3629813 L105.541783,30.7489615 C105.813191,30.6373933 106.735233,30.5890471 106.735233,28.8002372 L106.735233,8.03739791 C106.735233,6.24486906 105.813191,6.20024179 105.541783,6.0886736 L105.913574,4.47093491 L112.572352,4.47093491 L112.944143,6.0886736 C112.672736,6.20024179 111.754412,6.24486906 111.754412,8.03739791 L111.754412,11.3584109 C111.754412,11.3584109 115.669372,11.4848548 116.803334,18.4467096 Z" id="Shape" transform="translate(114.278873, 18.418818) scale(-1, 1) translate(-114.278873, -18.418818) "></path>
                        <path d="M37.2945143,10.1090265 C38.8151397,5.50163237 42.0571577,4.10033596 45.2434069,4.10033596 C49.5524652,4.10033596 52.6792279,7.03309167 52.6792279,11.9543643 L52.6792279,24.8821419 C52.6792279,29.8030426 49.5524652,32.7361702 45.2434069,32.7361702 C40.9343487,32.7361702 37.807586,29.7900263 37.807586,24.8821419 L37.807586,13.8536267 L42.8267651,15.4431015 L42.8267651,26.1949275 C42.8267651,27.7345685 43.704192,28.9841322 45.2434069,28.9841322 C46.7826219,28.9841322 47.6600487,27.7345685 47.6600487,26.1949275 L47.6600487,10.6412068 C47.6600487,9.10193772 46.7826219,7.85200215 45.2434069,7.85200215 C43.704192,7.85200215 42.8267651,9.10193772 42.8267651,10.6412068 C42.8267651,10.6412068 42.8007397,11.5530908 42.9122771,12.4080749 L37.2945143,10.1090265 Z" id="Shape"></path>
                        <path d="M70.7548458,10.1090265 C72.2754712,5.50163237 75.5174891,4.10033596 78.7037384,4.10033596 C83.0127966,4.10033596 86.1395593,7.03309167 86.1395593,11.9543643 L86.1395593,24.8821419 C86.1395593,29.8030426 83.0127966,32.7361702 78.7037384,32.7361702 C74.3946801,32.7361702 71.2679174,29.7900263 71.2679174,24.8821419 L71.2679174,13.8536267 L76.2870966,15.4431015 L76.2870966,26.1949275 C76.2870966,27.7345685 77.1645234,28.9841322 78.7037384,28.9841322 C80.2429533,28.9841322 81.1203802,27.7345685 81.1203802,26.1949275 L81.1203802,10.6412068 C81.1203802,9.10193772 80.2429533,7.85200215 78.7037384,7.85200215 C77.1645234,7.85200215 76.2870966,9.10193772 76.2870966,10.6412068 C76.2870966,10.6412068 76.2610712,11.5530908 76.3726085,12.4080749 L70.7548458,10.1090265 Z" id="Shape"></path>
                        <path d="M59.8139293,18.4181223 L55.5383322,8.03707453 C54.7278278,6.30107357 53.8987337,6.1578944 53.6013009,6.08946591 L53.9730919,4.47209911 L60.6318696,4.47209911 L61.0036606,6.08946591 C60.698792,6.16012576 59.8473905,6.51230933 60.5575114,8.03707453 L62.3235188,12.3250118 L64.0895263,8.03707453 C64.7996472,6.51230933 63.2046636,6.16012576 62.8960771,6.08946591 L63.2678681,4.47209911 L69.9266457,4.47209911 L70.2984368,6.08946591 C70.001004,6.1578944 68.3837129,6.39441895 67.6215413,8.03707453 L64.0895263,16.6125772 L69.1087054,28.7991701 C69.8857487,30.4671144 70.7631756,30.6820691 71.0420189,30.7467787 L70.6702278,32.3641455 L64.0114502,32.3641455 L63.6396591,30.7467787 C63.9296562,30.6802097 64.8033651,30.3332326 64.0895263,28.7991701 L61.5799367,22.7060596 L59.0703472,28.7991701 C58.3750979,30.2912086 59.9700815,30.6802097 60.2600785,30.7467787 L59.8882875,32.3641455 L53.2295098,32.3641455 L52.8577188,30.7467787 C53.14028,30.6820691 54.802186,30.3782318 55.5383322,28.7991701 L59.8139293,18.4181223 Z" id="Shape"></path>
                        <path d="M95.69098,32.36562 L88.1138784,32.36562 L87.7420874,30.7478813 C88.0134948,30.6363131 88.9355366,30.5879669 88.9355366,28.799157 L88.9355366,11.3004309 L93.9547158,13.4518374 L93.9547158,28.9330388 C97.9700591,28.9553525 98.4794128,26.9880335 98.4794128,25.4521115 L98.4794128,11.0810135 C98.4794128,9.38852411 97.2339128,8.24085938 95.5311098,8.24085938 C93.8320247,8.24085938 92.6943441,9.27212131 92.3188352,10.756722 L87.8684963,7.53946739 C89.8501426,5.3992177 92.5121665,4.22403281 95.6426471,4.22403281 C100.182216,4.22403281 103.498592,7.15716041 103.498592,12.0784331 L103.498592,24.5112198 C103.498592,29.4313767 100.000038,32.3619011 95.69098,32.36562 Z" id="Shape"></path>
                        <path d="M173.472112,4.47088073 L173.843903,6.08861942 C173.572495,6.20018761 172.650454,6.24481488 172.650454,8.03734373 L172.650454,28.9303459 C172.650454,28.9303459 177.598992,29.4472785 177.598992,25.3750397 L177.598992,8.03734373 C177.598992,6.24481488 176.680669,6.20018761 176.405543,6.08861942 L176.777334,4.47088073 L183.43983,4.47088073 L183.811621,6.08861942 C183.540213,6.20018761 182.618172,6.24481488 182.618172,8.03734373 L182.618172,29.7187611 L185.722627,29.726199 L185.722627,31.1096445 L182.919322,33.6459612 C186.42903,33.1029961 186.626079,37.4913447 183.633161,37.9115849 C180.792678,38.3132303 178.851928,34.7988325 181.636643,32.366646 L166.809616,32.366646 L166.437825,30.7489073 C166.709233,30.6373392 167.631274,30.5927119 167.631274,28.800183 L167.631274,8.03734373 C167.631274,6.24481488 166.709233,6.20018761 166.437825,6.08861942 L166.809616,4.47088073 L173.472112,4.47088073 Z" id="Shape"></path>
                    </g>
                    <g id="Group">
                        <g transform="translate(1.840882, 1.469045)" id="Oval" fill="#FFFFFF">
                            <ellipse cx="23.1836226" cy="23.1626832" rx="22.857873" ry="22.7793144"></ellipse>
                        </g>
                        <g transform="translate(0.250303, 0.303764)" id="Shape" fill="#282222">
                            <path d="M24.7473374,0.0323970903 C38.1978607,0.0323970903 49.1289506,10.9218691 49.1289506,24.3302148 C49.1289506,37.7426101 38.1978607,48.6280325 24.7473374,48.6280325 C11.2968141,48.6280325 0.365724198,37.7426101 0.365724198,24.3302148 C0.365724198,10.9218691 11.2968141,0.0323970903 24.7473374,0.0323970903 Z M25.3975137,39.7836268 C24.9505175,39.7998254 25.885146,37.7021138 24.6660653,37.7790569 C23.4469847,37.8519503 23.1218965,37.7021138 22.5936282,37.6454189 C22.0653599,37.588724 22.6749003,40.4558665 21.6589997,43.6388806 C21.3339115,44.7970765 21.5777277,44.9550124 22.4717202,44.4528575 C23.975253,43.6105331 24.9911535,41.1888506 25.1943336,41.1807513 C25.5600578,41.1686024 25.4381498,43.4363988 26.9823186,43.4404484 C28.5264874,43.444498 28.6890315,40.9418228 28.8922116,40.9377732 C29.1360278,40.9337235 29.0953917,41.7760479 29.583024,42.7641591 C30.7208326,44.9671613 31.0865568,44.2625246 31.1678289,43.1488746 C31.452281,38.6578279 32.7932697,37.2607034 32.5088176,37.098718 C31.0459208,36.2361454 29.2579358,39.4272588 29.0141197,39.4394077 C28.7703036,39.4515567 28.9328477,37.6980641 27.5105869,37.7385605 C26.0070541,37.7790569 25.803874,39.7674283 25.3975137,39.7836268 Z M10.4028216,28.6349781 C10.4028216,28.6349781 9.67137323,29.5704441 10.6466378,31.0850081 C11.5812663,32.5995721 12.922255,34.1262849 13.4911593,35.2480342 C14.0600636,36.3697834 17.2296733,38.4553461 17.8392137,39.0992383 C18.408118,39.7431305 20.0741949,41.051163 20.236739,41.5047222 C20.399283,41.9582815 21.3339115,38.9736996 21.2526395,38.3419563 C21.1713675,37.7102131 20.6024631,36.8476405 19.2614744,36.4143294 C17.9204857,35.985068 15.8480486,34.4543055 15.1572362,33.4337971 C14.4664238,32.4132888 10.4028216,28.6349781 10.4028216,28.6349781 Z M34.5406187,8.47588874 C33.4840821,8.49613692 32.3462735,10.2091331 31.7367332,10.1402892 C30.8427407,10.0390483 27.1042267,9.89731107 24.7473374,11.1041027 C23.975253,11.4928678 26.6165944,11.5252649 27.4699509,12.9142901 C28.1201272,14.0036423 29.3798439,13.7566144 29.8268401,14.1858759 C30.1519283,14.4734001 28.5264874,15.4331639 27.8356751,16.2714386 C27.2261347,17.012522 27.1854987,17.9115413 26.6572304,18.304356 C26.1695982,18.6566743 24.7067014,19.195276 24.9098815,20.5438049 C25.0724256,21.3577817 24.9098815,21.8761352 24.5035213,22.1960565 C24.056525,22.5726726 24.7067014,23.3299546 24.1784331,23.6701241 C23.4469847,24.1398819 23.2844406,23.4352452 21.7809078,24.1155841 C21.0088234,24.4760017 19.9929228,23.3987984 19.3833825,22.3539923 C18.3268459,20.5478545 18.1236658,19.6285871 17.4734895,19.017092 C16.8233131,18.4217954 15.2791443,18.0694771 14.0600636,18.8875036 C13.1660711,19.507098 12.8409829,21.0783568 13.6943394,23.5850817 C14.1413357,24.8242704 15.3197803,25.541056 15.6855045,26.5939615 C15.8480486,27.0758682 15.5635964,27.3107471 15.5229604,27.7440582 C15.4416884,28.2381138 16.2950448,28.6997723 15.7667765,29.1290338 C15.2791443,29.5501959 15.6448685,30.5707043 13.7756115,29.9997056 C13.7756115,29.9997056 17.2296733,34.5271989 20.6024631,35.4788635 C21.9840879,35.8676285 23.4063487,35.316878 24.1784331,35.7906855 C24.5847933,36.0417629 25.1130616,37.0663209 25.803874,36.7302011 C26.7385025,36.2644929 28.6890315,35.1305947 31.0052848,35.1427436 C31.8992773,35.1467933 35.3127031,36.163252 36.2066956,35.1710911 C36.938144,34.3773624 36.5724198,32.4659341 36.7349639,31.3441848 C36.8568719,30.2669816 37.7508644,29.4125083 37.3851402,29.3072178 L34.7844348,28.4243971 C34.7844348,28.4243971 37.1819601,27.7116611 37.7915005,27.05562 C37.9946806,26.8369396 37.5883203,24.3747608 37.8727725,23.9697971 C38.1978607,23.5283868 40.676658,23.9738468 40.3515698,22.301347 C40.1890257,21.2808387 38.1978607,18.3772494 37.8321365,17.680712 C37.4664123,17.0165717 38.848037,15.8583757 38.9699451,15.2468806 C39.1731252,14.5017475 37.1413241,8.4272931 34.5406187,8.47588874 Z M37.3038682,24.9295609 C37.3038682,24.9295609 37.7102284,27.0880171 35.6784273,27.2581018 C34.8250708,27.3269456 34.6218907,27.9262918 33.8091703,28.080178 C33.280902,28.1814189 33.0370859,28.8982045 32.4681816,29.0358921 C31.2084649,29.3355652 30.8021047,30.8825263 30.8021047,30.6233496 C30.7208326,28.9913461 30.5582885,28.0315823 32.4681816,27.3107471 C32.9151778,27.1285134 33.0777219,26.3914796 33.6059902,26.3388344 C34.4999827,26.2456927 34.4593466,25.5977509 35.4346112,25.6422969 C36.4505117,25.6908926 37.3038682,24.9295609 37.3038682,24.9295609 Z M36.1254235,22.9330903 C36.6536918,22.6698639 37.5883203,23.0910261 37.4664123,23.2611108 C37.1006881,23.8118613 36.7755999,23.7835139 36.4505117,23.7754146 C35.8816074,23.7592161 35.5158832,23.2327633 36.1254235,22.9330903 Z M36.3692397,15.3278733 C36.0441515,15.3400222 35.3533391,16.2309422 32.5494536,16.1944955 C31.8992773,16.1863962 29.62366,17.947988 28.4045794,18.393448 C28.4045794,18.393448 28.7296675,18.6809722 29.3392079,18.7174189 C29.9487482,18.7538656 30.2332004,18.4744407 31.0459208,18.0735267 C31.8992773,17.6483149 32.9558138,17.4336842 33.19963,17.7050098 C33.4840821,18.0046829 32.5494536,18.3327034 31.7367332,18.4663414 C31.2084649,18.5554334 30.7208326,19.0656876 30.3957444,19.2762687 C30.3957444,19.2762687 31.2084649,19.7338776 31.9805493,19.6123885 C32.7119977,19.4949491 33.6059902,19.3572614 33.6059902,19.3572614 C33.6059902,19.3572614 33.280902,20.5357056 33.5653542,20.5519041 C33.6872622,20.5600034 33.7278983,20.5559538 34.4187106,19.3370132 C34.7844348,18.6809722 34.8657069,17.725258 35.4346112,18.2274129 C35.6784273,18.4420436 36.1254235,18.6728729 36.3286037,18.25981 C36.4911477,17.9641865 35.8816074,17.4093864 36.1660596,17.1745075 C37.5070483,15.9596166 36.938144,15.3035755 36.3692397,15.3278733 Z"></path>
                        </g>
                    </g>
                </g>
            </g>
        </g>
    </g>
</svg>