<?xml version="1.0" encoding="UTF-8"?>
<svg width="28px" height="22px" viewBox="0 0 28 22" version="1.1" xmlns="http://www.w3.org/2000/svg" xmlns:xlink="http://www.w3.org/1999/xlink">
    <!-- Generator: Sketch 45.2 (43514) - http://www.bohemiancoding.com/sketch -->
    <title>facebook-logo</title>
    <desc>Created with Sketch.</desc>
    <defs></defs>
    <g id="Page-1" stroke="none" stroke-width="1" fill="none" fill-rule="evenodd">
        <g id="02-menu-01" transform="translate(-1212.000000, -24.000000)" fill-rule="nonzero" fill="#282222">
            <g id="Group-12">
                <g id="Group-4" transform="translate(1174.000000, 24.000000)">
                    <g id="facebook-logo" transform="translate(38.000000, 0.000000)">
                        <g transform="translate(3.000000, 0.000000)" id="White">
                            <g>
                                <g id="Layer_2">
                                    <g id="White">
                                        <path d="M20.7772285,0 L1.21370787,0 C0.54339552,-4.10447934e-17 8.20895867e-17,0.54339552 0,1.21370787 L0,20.7772285 C8.20895867e-17,21.4475408 0.54339552,21.9909363 1.21370787,21.9909363 L11.7465169,21.9909363 L11.7465169,13.475206 L8.88074906,13.475206 L8.88074906,10.1562547 L11.7465169,10.1562547 L11.7465169,7.7082397 C11.7465169,4.86801498 13.4809738,3.32142322 16.0155056,3.32142322 C16.8708861,3.31848057 17.72579,3.362216 18.5764045,3.45243446 L18.5764045,6.41872659 L16.8188764,6.41872659 C15.4411985,6.41872659 15.1709363,7.07378277 15.1709363,8.03453184 L15.1709363,10.1537828 L18.4569288,10.1537828 L18.0292884,13.4727341 L15.1734082,13.4727341 L15.1734082,21.9909363 L20.7764045,21.9909363 C21.4467168,21.9909363 21.9901124,21.4475408 21.9901124,20.7772285 L21.9901124,1.21370787 C21.9901125,0.543717169 21.447219,0.000454847723 20.7772285,0 L20.7772285,0 Z" id="White-2"></path>
                                    </g>
                                </g>
                            </g>
                        </g>
                    </g>
                </g>
            </g>
        </g>
    </g>
</svg>